<?xml version="1.0" standalone="no"?><!DOCTYPE svg PUBLIC "-//W3C//DTD SVG 1.1//EN" "http://www.w3.org/Graphics/SVG/1.1/DTD/svg11.dtd"><svg t="1600784056077" class="icon" viewBox="0 0 1024 1024" version="1.1" xmlns="http://www.w3.org/2000/svg" p-id="5528" xmlns:xlink="http://www.w3.org/1999/xlink" width="64" height="64"><defs><style type="text/css"></style></defs><path d="M621.576191 236.315539a52.149549 52.149549 0 0 1 0-74.42566 53.462667 53.462667 0 0 1 74.425659-1e-8l311.912453 311.86555501a53.462667 53.462667 0 0 1 15.616726 37.939735c0 14.866373-5.955929 28.278937-15.61672601 37.986632l-311.91245299 311.865555c-20.822302 20.822302-53.603358 20.822302-74.425659 0s-20.822302-53.603358 0-74.425659l223.323876-222.573523L52.104996 564.548174A52.337137 52.337137 0 0 1 0.002345 511.742066c0-29.02929 23.073361-52.102651 52.102651-52.102651l792.74817401 0-223.27697901-223.323876z" fill="#050038" p-id="5529"></path></svg>