<?xml version="1.0" standalone="no"?>
<!DOCTYPE svg PUBLIC "-//W3C//DTD SVG 20010904//EN"
 "http://www.w3.org/TR/2001/REC-SVG-20010904/DTD/svg10.dtd">
<svg version="1.0" xmlns="http://www.w3.org/2000/svg"
 width="48px" height="48px" viewBox="0 0 602.000000 512.000000"
 preserveAspectRatio="xMidYMid meet">

<g transform="translate(0.000000,512.000000) scale(0.100000,-0.100000)"
fill="#050038" stroke="none">
<path d="M2305 5069 c-682 -71 -1279 -393 -1709 -924 -286 -352 -461 -758
-533 -1232 -23 -153 -22 -498 1 -658 78 -538 304 -1008 668 -1390 414 -435
962 -704 1553 -765 266 -28 633 0 883 66 802 212 1445 799 1727 1579 105 289
153 605 141 920 -8 211 -16 263 -46 287 -48 39 -114 8 -113 -53 1 -19 4 -125
8 -235 11 -293 -19 -526 -100 -783 -366 -1150 -1535 -1840 -2713 -1600 -1117
227 -1919 1240 -1879 2374 26 733 365 1377 958 1820 305 228 667 374 1079 437
132 20 518 17 660 -6 516 -81 989 -326 1343 -695 119 -125 225 -261 312 -401
72 -117 159 -295 151 -308 -3 -6 -39 -20 -78 -32 -175 -53 -344 -155 -478
-290 -100 -99 -190 -228 -190 -270 0 -54 71 -91 111 -57 9 6 42 50 75 95 102
145 236 257 400 334 122 57 214 77 426 93 207 16 307 37 438 92 158 67 274
148 390 270 80 84 170 215 170 247 0 53 -62 90 -105 62 -12 -8 -47 -50 -78
-93 -184 -261 -461 -412 -792 -429 l-122 -7 -76 155 c-127 258 -280 473 -481
673 -390 389 -859 624 -1416 710 -126 19 -460 27 -585 14z"/>
<path d="M1611 4038 c-83 -28 -159 -98 -204 -187 l-32 -64 -71 -18 c-181 -45
-325 -164 -405 -334 -33 -70 -59 -184 -59 -258 1 -193 116 -405 275 -506 68
-43 104 -39 133 16 18 33 0 67 -61 112 -273 201 -258 607 28 776 67 40 110 54
203 65 35 5 72 16 81 24 10 9 24 42 30 73 6 31 21 71 32 87 27 40 68 71 79 60
5 -5 18 -55 30 -111 74 -369 297 -659 633 -824 37 -19 67 -36 67 -39 0 -4 -28
-20 -61 -36 -102 -48 -226 -136 -310 -219 -98 -97 -144 -156 -207 -266 -460
-796 -609 -1057 -615 -1072 -20 -53 39 -109 92 -87 31 13 18 -8 199 305 79
138 149 256 155 263 22 28 27 -18 27 -269 0 -230 2 -259 18 -277 27 -33 65
-37 96 -10 l26 23 4 422 5 422 62 108 c130 224 190 300 312 398 94 75 247 154
357 184 312 85 654 15 895 -183 27 -23 58 -48 68 -56 27 -22 137 -159 137
-171 0 -6 -60 -114 -134 -242 -73 -128 -167 -290 -208 -362 -303 -525 -293
-504 -241 -545 30 -24 66 -21 95 8 9 9 76 121 149 247 72 127 194 338 270 470
76 132 144 241 152 243 16 3 34 -38 64 -143 14 -50 17 -119 20 -415 2 -217 8
-365 14 -382 23 -57 108 -57 130 -1 17 46 5 721 -14 803 -57 237 -161 422
-324 582 -142 138 -286 224 -470 282 -87 27 -171 39 -393 56 -163 12 -253 36
-386 101 -195 95 -357 258 -454 454 -59 119 -86 221 -100 364 -9 95 -12 108
-35 129 -33 28 -71 28 -154 0z"/>
</g>
</svg>
