<?xml version="1.0" standalone="no"?><!DOCTYPE svg PUBLIC "-//W3C//DTD SVG 1.1//EN" "http://www.w3.org/Graphics/SVG/1.1/DTD/svg11.dtd"><svg t="1600784119395" class="icon" viewBox="0 0 1024 1024" version="1.1" xmlns="http://www.w3.org/2000/svg" p-id="5735" xmlns:xlink="http://www.w3.org/1999/xlink" width="64" height="64"><defs><style type="text/css"></style></defs><path d="M402.423809 787.684461a52.149549 52.149549 0 0 1 0 74.42566 53.462667 53.462667 0 0 1-74.425659 1e-8l-311.912453-311.86555501a53.462667 53.462667 0 0 1-15.616726-37.939735c0-14.866373 5.955929-28.278937 15.61672601-37.986632l311.91245299-311.865555c20.822302-20.822302 53.603358-20.822302 74.425659 0s20.822302 53.603358 0 74.425659l-223.323876 222.573523L971.895004 459.451826A52.337137 52.337137 0 0 1 1023.997655 512.257934c0 29.02929-23.073361 52.102651-52.102651 52.102651l-792.74817401 0 223.27697901 223.323876z" fill="#1E201D" p-id="5736"></path></svg>