<?xml version="1.0" standalone="no"?><!DOCTYPE svg PUBLIC "-//W3C//DTD SVG 1.1//EN" "http://www.w3.org/Graphics/SVG/1.1/DTD/svg11.dtd"><svg class="icon" width="64px" height="64.00px" viewBox="0 0 1024 1024" version="1.1" xmlns="http://www.w3.org/2000/svg"><path d="M760.944 263.04A350.832 350.832 0 0 1 863.984 512c0 16.32-1.12 32.32-3.2 48H639.984a32 32 0 0 1-32-32c0-17.76 14.24-32 32-32h-176a32 32 0 0 1-32-32c0-17.76 14.24-32 32-32h96a32 32 0 0 1-32-32c0-17.76 14.24-32 32-32h96a32 32 0 0 1-32-32c0-17.76 14.24-32 32-32h-128a32 32 0 0 1-32-32c0-17.76 14.24-32 32-32h207.52c8.8 7.36 17.28 15.04 25.44 23.04zM263.008 760.96A351.344 351.344 0 0 1 161.408 544h110.56a32 32 0 1 1 0 64h112a32 32 0 1 1 0 64h128a32 32 0 1 1 0 64h-80a32 32 0 1 1 0 64h-122.4a340.112 340.112 0 0 1-46.56-39.04z" fill="#D7E9FF" /><path d="M415.984 640a32 32 0 0 0-32-32h-112a32 32 0 1 0 0-64h-110.56c-0.96-10.56-1.44-21.12-1.44-32 0-97.28 39.36-185.28 103.024-248.96 63.68-63.68 151.68-103.04 248.976-103.04 84.96 0 162.72 29.92 223.52 80h-207.52c-17.76 0-32 14.24-32 32a32 32 0 0 0 32 32h128c-17.76 0-32 14.24-32 32a32 32 0 0 0 32 32h-96c-17.76 0-32 14.24-32 32a32 32 0 0 0 32 32h-96c-17.76 0-32 14.24-32 32a32 32 0 0 0 32 32h176c-17.76 0-32 14.24-32 32a32 32 0 0 0 32 32h220.64c-10.56 78.08-46.72 148-99.68 200.96A350.896 350.896 0 0 1 511.984 864c-75.36 0-145.12-23.68-202.4-64h122.4a32 32 0 1 0 0-64h80a32 32 0 1 0 0-64h-128a32 32 0 0 0 32-32z" fill="#94C1FF" /><path d="M760.944 263.04c-8.16-8-16.64-15.68-25.44-23.04a350.032 350.032 0 0 0-255.216-78.512A349.6 349.6 0 0 1 671.504 240c8.8 7.36 17.28 15.04 25.44 23.04A350.832 350.832 0 0 1 799.984 512c0 16.32-1.12 32.32-3.2 48h-0.16c-10.56 78.08-46.72 148-99.68 200.96a350.832 350.832 0 0 1-216.64 101.52c10.448 0.928 20.992 1.52 31.68 1.52 97.28 0 185.28-39.36 248.96-103.04A350.368 350.368 0 0 0 860.624 560h0.16c2.08-15.68 3.2-31.68 3.2-48 0-97.28-39.36-185.28-103.04-248.96z" fill="#5C9EFF" /><path d="M760.944 263.04c-8.16-8-16.64-15.68-25.44-23.04h-64c8.8 7.36 17.28 15.04 25.44 23.04A350.832 350.832 0 0 1 799.984 512c0 16.32-1.12 32.32-3.2 48h64c2.08-15.68 3.2-31.68 3.2-48 0-97.28-39.36-185.28-103.04-248.96z" fill="#94C1FF" /><path d="M207.184 816.8a111.36 111.36 0 0 1 32.8 79.2c0 61.92-50.24 112-112 112-61.92 0-112-50.08-112-112s50.08-112 112-112c30.88 0 58.88 12.48 79.2 32.8zM783.984 896c0-31.04 12.48-58.88 32.8-79.2a111.36 111.36 0 0 1 79.2-32.8c61.76 0 112 50.08 112 112s-50.24 112-112 112c-61.92 0-112-50.08-112-112zM783.984 128c0-61.92 50.08-112 112-112s112 50.08 112 112-50.24 112-112 112c-31.04 0-58.88-12.48-79.2-32.8A111.328 111.328 0 0 1 783.984 128zM127.984 16c61.76 0 112 50.08 112 112 0 31.04-12.48 58.88-32.8 79.2A111.616 111.616 0 0 1 127.984 240c-61.92 0-112-50.08-112-112s50.08-112 112-112z" fill="#D7E9FF" /><path d="M127.984 16c-11.136 0-21.872 1.664-32.032 4.688A112 112 0 0 1 175.984 128a111.984 111.984 0 0 1-80.016 107.312 111.952 111.952 0 0 0 111.216-28.112A111.36 111.36 0 0 0 239.984 128c0-61.92-50.24-112-112-112zM896.016 16c-11.136 0-21.872 1.664-32.032 4.688A112 112 0 0 1 944.016 128 111.984 111.984 0 0 1 864 235.312a111.952 111.952 0 0 0 111.216-28.112A111.36 111.36 0 0 0 1008.016 128c0-61.92-50.24-112-112-112zM127.984 784c-11.136 0-21.872 1.664-32.032 4.688A112 112 0 0 1 175.984 896a111.984 111.984 0 0 1-80.016 107.312 111.952 111.952 0 0 0 111.216-28.112 111.36 111.36 0 0 0 32.8-79.2c0-61.92-50.24-112-112-112zM896.016 784c-11.136 0-21.872 1.664-32.032 4.688A112 112 0 0 1 944.016 896 111.984 111.984 0 0 1 864 1003.312a111.952 111.952 0 0 0 111.216-28.112 111.36 111.36 0 0 0 32.8-79.2c0-61.92-50.24-112-112-112z" fill="#94C1FF" /><path d="M128.48 192c-8.848 0-16.08-7.152-16.08-16s7.072-16 15.904-16h0.176a16 16 0 1 1 0 32z" fill="#116FFF" /><path d="M128.016 256c-70.576 0-128-57.424-128-128s57.424-128 128-128 128 57.424 128 128c-0.016 70.576-57.44 128-128 128z m0-224c-52.944 0-96 43.056-96 96s43.056 96 96 96a96.112 96.112 0 0 0 96-96c0-52.944-43.056-96-96-96z" fill="#116FFF" /><path d="M304.016 320a15.952 15.952 0 0 1-11.312-4.688l-96.816-96.816a15.984 15.984 0 1 1 22.624-22.624l96.816 96.816A15.984 15.984 0 0 1 304.016 320zM161.936 158.064a15.936 15.936 0 0 1-11.328-4.704c-12.096-12.096-33.12-12.096-45.216 0a15.984 15.984 0 1 1-22.656-22.592c24.192-24.256 66.336-24.256 90.528 0a15.984 15.984 0 0 1-11.328 27.296z" fill="#116FFF" /><path d="M195.872 124.128a15.952 15.952 0 0 1-11.312-4.688C169.44 104.32 149.36 95.968 128 95.968s-41.44 8.352-56.56 23.472a15.984 15.984 0 1 1-22.624-22.624C69.968 75.648 98.096 63.968 128 63.968s58.032 11.664 79.184 32.848a15.984 15.984 0 0 1-11.312 27.312zM896.496 192c-8.848 0-16.08-7.152-16.08-16s7.072-16 15.904-16h0.176a16 16 0 1 1 0 32z" fill="#116FFF" /><path d="M896 256c-70.56 0-127.984-57.424-128-128 0-70.576 57.424-128 128-128s128 57.424 128 128-57.424 128-128 128z m0-224c-52.944 0-96 43.056-96 96a96.112 96.112 0 0 0 96 96c52.944 0 96-43.056 96-96s-43.056-96-96-96z" fill="#116FFF" /><path d="M720 320a15.984 15.984 0 0 1-11.312-27.312l96.816-96.816a15.984 15.984 0 1 1 22.624 22.624l-96.816 96.816A15.952 15.952 0 0 1 720 320zM895.984 1024c-70.576 0-128-57.424-128-128 0.016-70.576 57.44-128 128-128 70.576 0 128 57.424 128 128s-57.424 128-128 128z m0-224a96.112 96.112 0 0 0-96 96c0 52.944 43.056 96 96 96s96-43.056 96-96-43.056-96-96-96z" fill="#116FFF" /><path d="M816.8 832.816a15.952 15.952 0 0 1-11.312-4.688l-96.816-96.816a15.984 15.984 0 1 1 22.624-22.624l96.816 96.816a15.984 15.984 0 0 1-11.312 27.312zM128 1024c-70.576 0-128-57.424-128-128s57.424-128 128-128c70.56 0 127.984 57.424 128 128 0 70.576-57.424 128-128 128z m0-224c-52.944 0-96 43.056-96 96s43.056 96 96 96 96-43.056 96-96a96.112 96.112 0 0 0-96-96z" fill="#116FFF" /><path d="M207.184 832.816a15.984 15.984 0 0 1-11.312-27.312l96.816-96.816a15.984 15.984 0 1 1 22.624 22.624l-96.816 96.816a15.952 15.952 0 0 1-11.312 4.688zM929.952 158.064a15.936 15.936 0 0 1-11.328-4.704c-12.096-12.096-33.12-12.096-45.216 0a15.984 15.984 0 1 1-22.656-22.592c24.192-24.256 66.336-24.256 90.528 0a15.984 15.984 0 0 1-11.328 27.296z" fill="#116FFF" /><path d="M963.888 124.128a15.952 15.952 0 0 1-11.312-4.688c-15.12-15.12-35.2-23.472-56.56-23.472s-41.44 8.336-56.56 23.472a15.984 15.984 0 1 1-22.624-22.624c21.152-21.168 49.28-32.848 79.184-32.848s58.032 11.664 79.184 32.848a15.984 15.984 0 0 1-11.312 27.312zM128.48 960c-8.848 0-16.08-7.152-16.08-16s7.072-16 15.904-16h0.176a16 16 0 1 1 0 32zM161.936 926.064a15.936 15.936 0 0 1-11.328-4.704c-12.096-12.096-33.12-12.096-45.216 0a15.984 15.984 0 1 1-22.656-22.592c24.192-24.256 66.336-24.256 90.528 0a15.984 15.984 0 0 1-11.328 27.296z" fill="#116FFF" /><path d="M195.872 892.128a15.952 15.952 0 0 1-11.312-4.688c-15.12-15.12-35.2-23.472-56.56-23.472s-41.44 8.336-56.56 23.472a15.984 15.984 0 1 1-22.624-22.624c21.152-21.168 49.28-32.848 79.184-32.848s58.032 11.664 79.184 32.848a15.984 15.984 0 0 1-11.312 27.312zM896.496 960c-8.848 0-16.08-7.152-16.08-16s7.072-16 15.904-16h0.176a16 16 0 1 1 0 32zM929.952 926.064a15.936 15.936 0 0 1-11.328-4.704c-12.096-12.096-33.12-12.096-45.216 0a15.984 15.984 0 1 1-22.656-22.592c24.192-24.256 66.336-24.256 90.528 0a15.984 15.984 0 0 1-11.328 27.296z" fill="#116FFF" /><path d="M963.888 892.128a15.952 15.952 0 0 1-11.312-4.688c-15.12-15.12-35.2-23.472-56.56-23.472s-41.44 8.336-56.56 23.472a15.984 15.984 0 1 1-22.624-22.624c21.152-21.168 49.28-32.848 79.184-32.848s58.032 11.664 79.184 32.848a15.984 15.984 0 0 1-11.312 27.312zM512.064 880H512a365.616 365.616 0 0 1-260.208-107.776A365.552 365.552 0 0 1 144.016 512c0-202.928 165.056-368 367.968-368 202.944 0 368.032 165.072 368.032 368S714.96 880 512.064 880z m-0.08-704c-185.248 0-335.968 150.736-335.968 336a333.872 333.872 0 0 0 98.4 237.6A333.872 333.872 0 0 0 512 848h0.064c185.248 0 335.952-150.736 335.952-336s-150.752-336-336.032-336z" fill="#116FFF" /><path d="M736 256H528a16 16 0 1 1 0-32h208a16 16 0 1 1 0 32z" fill="#116FFF" /><path d="M528 320c-26.464 0-48-21.536-48-48s21.536-48 48-48a16 16 0 1 1 0 32 16 16 0 0 0 0 32 16 16 0 1 1 0 32z" fill="#116FFF" /><path d="M656 320h-128a16 16 0 1 1 0-32h128a16 16 0 1 1 0 32z" fill="#116FFF" /><path d="M656 384c-26.464 0-48-21.536-48-48s21.536-48 48-48a16 16 0 1 1 0 32 16 16 0 0 0 0 32 16 16 0 1 1 0 32z" fill="#116FFF" /><path d="M656 384h-96a16 16 0 1 1 0-32h96a16 16 0 1 1 0 32z" fill="#116FFF" /><path d="M560 448c-26.464 0-48-21.536-48-48s21.536-48 48-48a16 16 0 1 1 0 32 16 16 0 0 0 0 32 16 16 0 1 1 0 32z" fill="#116FFF" /><path d="M560 448h-96a16 16 0 1 1 0-32h96a16 16 0 1 1 0 32z" fill="#116FFF" /><path d="M464 512c-26.464 0-48-21.536-48-48s21.536-48 48-48a16 16 0 1 1 0 32 16 16 0 0 0 0 32 16 16 0 1 1 0 32z" fill="#116FFF" /><path d="M640 512H464a16 16 0 1 1 0-32h176a16 16 0 1 1 0 32z" fill="#116FFF" /><path d="M640 576c-26.464 0-48-21.536-48-48s21.536-48 48-48a16 16 0 1 1 0 32 16 16 0 0 0 0 32 16 16 0 1 1 0 32z" fill="#116FFF" /><path d="M860.768 576H640a16 16 0 1 1 0-32h220.768a16 16 0 1 1 0 32z" fill="#116FFF" /><path d="M512 688h-128a16 16 0 1 1 0-32h128a16 16 0 1 1 0 32zM432 816a16 16 0 1 1 0-32 16 16 0 0 0 0-32 16 16 0 1 1 0-32c26.464 0 48 21.536 48 48s-21.536 48-48 48z" fill="#116FFF" /><path d="M512 752a16 16 0 1 1 0-32 16 16 0 0 0 0-32 16 16 0 1 1 0-32c26.464 0 48 21.536 48 48s-21.536 48-48 48zM384 688a16 16 0 1 1 0-32 16 16 0 0 0 0-32 16 16 0 1 1 0-32c26.464 0 48 21.536 48 48s-21.536 48-48 48zM272 624a16 16 0 1 1 0-32 16 16 0 0 0 0-32 16 16 0 1 1 0-32c26.464 0 48 21.536 48 48s-21.536 48-48 48zM432 816h-122.432a16 16 0 1 1 0-32H432a16 16 0 1 1 0 32z" fill="#116FFF" /><path d="M512 752h-80a16 16 0 1 1 0-32h80a16 16 0 1 1 0 32zM384 624h-112a16 16 0 1 1 0-32h112a16 16 0 1 1 0 32zM272 560h-110.064a16 16 0 1 1 0-32H272a16 16 0 1 1 0 32z" fill="#116FFF" /></svg>