<?xml version="1.0" encoding="UTF-8"?>
<svg width="120px" height="60px" viewBox="0 0 120 60" version="1.1" xmlns="http://www.w3.org/2000/svg" xmlns:xlink="http://www.w3.org/1999/xlink">
    <title>未命名</title>
    <g id="页面-1" stroke="none" stroke-width="1" fill="none" fill-rule="evenodd">
        <rect id="矩形" fill-opacity="0" fill="#D8D8D8" x="0" y="0" width="120" height="60"></rect>
        <path d="M26.034,10 L43,19.9652483 L42.966,39.9652483 L25.966,50 L9,40.0347517 L9.034,20.0347517 L26.034,10 Z M19.6669333,20.5035138 L18.0953778,21.4248204 L18.0953778,38.5419724 L19.676,39.4980307 L21.24,38.5682292 L21.24,31.6526373 L30.76,31.6526373 L30.76,38.5412001 L32.3406222,39.5034366 L33.9046222,38.573635 L33.9016,21.450305 L32.3300444,20.5120086 L30.7584889,21.4333153 L30.7584889,28.3489073 L21.2384889,28.3489073 L21.2384889,21.4418102 L19.6669333,20.5035138 Z M51.475,21.15 L51.475,28.675 L60.825,28.675 L60.825,21.15 L63.55,21.15 L63.55,39 L60.825,39 L60.825,31 L51.475,31 L51.475,39 L48.75,39 L48.75,21.15 L51.475,21.15 Z M80.3,21.15 L80.3,23.475 L74.35,23.475 L74.35,39 L71.65,39 L71.65,23.475 L65.675,23.475 L65.675,21.15 L80.3,21.15 Z M95.7,21.15 L95.7,23.475 L89.75,23.475 L89.75,39 L87.05,39 L87.05,23.475 L81.075,23.475 L81.075,21.15 L95.7,21.15 Z M105.25,21.15 C109.5,21.15 111.625,22.95 111.625,26.575 C111.625,30.225 109.475,32.05 105.2,32.05 L105.2,32.05 L100.575,32.05 L100.575,39 L97.85,39 L97.85,21.15 Z M105.025,23.475 L100.575,23.475 L100.575,29.725 L105.025,29.725 C106.375,29.725 107.35,29.475 107.975,28.975 C108.575,28.475 108.9,27.675 108.9,26.575 C108.9,25.475 108.575,24.675 107.95,24.225 C107.325,23.725 106.35,23.475 105.025,23.475 L105.025,23.475 Z" id="形状结合" fill="#0E83CD" fill-rule="nonzero"></path>
    </g>
</svg>