<?xml version="1.0" encoding="UTF-8"?>
<svg width="120px" height="60px" viewBox="0 0 120 60" version="1.1" xmlns="http://www.w3.org/2000/svg" xmlns:xlink="http://www.w3.org/1999/xlink">
    <title>未命名</title>
    <g id="页面-1" stroke="none" stroke-width="1" fill="none" fill-rule="evenodd">
        <g id="正则表达式矩形">
            <rect id="矩形" stroke="#979797" fill="#D8D8D8" opacity="0" x="0.5" y="0.5" width="119" height="59"></rect>
            <path d="M26,10 C37.045695,10 46,18.954305 46,30 C46,41.045695 37.045695,50 26,50 C14.954305,50 6,41.045695 6,30 C6,18.954305 14.954305,10 26,10 Z M77.558,27.442 C78.782,27.442 79.718,27.928 80.402,28.936 L80.402,28.936 L80.402,27.694 L82.31,27.694 L82.31,36.388 C82.31,39.34 80.852,40.816 77.972,40.816 C76.676,40.816 75.686,40.564 75.002,40.078 C74.318,39.574 73.904,38.818 73.724,37.792 L73.724,37.792 L75.632,37.792 C75.74,38.332 75.956,38.728 76.316,38.962 C76.658,39.178 77.216,39.304 77.972,39.304 C79.592,39.304 80.402,38.422 80.402,36.676 L80.402,36.676 L80.402,35.236 C79.718,36.262 78.782,36.784 77.558,36.784 C76.298,36.784 75.272,36.352 74.498,35.506 C73.706,34.66 73.328,33.544 73.328,32.14 C73.328,30.736 73.706,29.62 74.498,28.756 C75.272,27.874 76.298,27.442 77.558,27.442 Z M110.21,27.442 C111.578,27.442 112.64,27.928 113.432,28.9 C114.152,29.8 114.512,30.952 114.512,32.392 C114.512,33.76 114.152,34.894 113.45,35.794 C112.694,36.766 111.632,37.252 110.3,37.252 C109.148,37.252 108.212,36.712 107.456,35.632 L107.456,35.632 L107.456,40.564 L105.548,40.564 L105.548,27.694 L107.33,27.694 L107.33,28.81 C107.978,27.892 108.95,27.442 110.21,27.442 Z M67.478,27.442 C68.99,27.442 70.16,27.946 70.952,28.99 C71.672,29.926 72.05,31.222 72.068,32.878 L72.068,32.878 L65.012,32.878 C65.084,33.778 65.318,34.48 65.75,34.966 C66.182,35.434 66.776,35.686 67.532,35.686 C68.198,35.686 68.738,35.524 69.152,35.218 C69.476,34.966 69.746,34.552 69.998,34.012 L69.998,34.012 L71.906,34.012 C71.69,34.876 71.276,35.614 70.628,36.19 C69.818,36.892 68.792,37.252 67.55,37.252 C66.182,37.252 65.084,36.82 64.292,35.974 C63.428,35.074 62.996,33.868 62.996,32.338 C62.996,30.952 63.392,29.8 64.22,28.864 C65.012,27.91 66.11,27.442 67.478,27.442 Z M56.948,24.148 C58.244,24.148 59.288,24.436 60.044,25.03 C60.836,25.678 61.232,26.596 61.232,27.82 C61.232,28.504 61.052,29.098 60.692,29.62 C60.278,30.196 59.72,30.574 59.018,30.754 L59.018,30.754 L59.018,30.79 C60.17,31.042 60.8,31.798 60.944,33.058 L60.944,33.058 L61.16,35.11 C61.232,35.902 61.484,36.532 61.916,37 L61.916,37 L59.792,37 C59.486,36.604 59.306,36.028 59.234,35.308 L59.234,35.308 L59.072,33.706 C59,32.986 58.766,32.482 58.388,32.158 C57.992,31.834 57.434,31.69 56.696,31.69 L56.696,31.69 L53.222,31.69 L53.222,37 L51.26,37 L51.26,24.148 Z M93.884,24.148 L93.884,25.822 L86.612,25.822 L86.612,29.566 L93.452,29.566 L93.452,31.24 L86.612,31.24 L86.612,35.326 L94.19,35.326 L94.19,37 L84.65,37 L84.65,24.148 L93.884,24.148 Z M97.664,27.694 L99.716,30.646 L101.75,27.694 L103.982,27.694 L100.76,32.05 L104.378,37 L102.146,37 L99.716,33.454 L97.268,37 L95.018,37 L98.654,32.05 L95.432,27.694 L97.664,27.694 Z M109.922,28.99 C109.094,28.99 108.446,29.314 107.996,29.98 C107.6,30.556 107.402,31.33 107.402,32.284 L107.402,32.284 L107.402,32.446 C107.402,33.436 107.636,34.246 108.14,34.858 C108.572,35.416 109.148,35.704 109.868,35.704 C110.804,35.704 111.488,35.398 111.938,34.786 C112.334,34.21 112.55,33.418 112.55,32.392 C112.55,31.366 112.352,30.574 111.992,29.998 C111.542,29.314 110.858,28.99 109.922,28.99 Z M77.846,28.99 C77.036,28.99 76.406,29.26 75.974,29.836 C75.506,30.376 75.29,31.15 75.29,32.14 C75.29,33.04 75.47,33.76 75.83,34.282 C76.244,34.894 76.91,35.218 77.846,35.218 C78.656,35.218 79.286,34.948 79.754,34.408 C80.186,33.85 80.42,33.094 80.42,32.14 C80.42,31.168 80.186,30.394 79.754,29.836 C79.286,29.26 78.656,28.99 77.846,28.99 Z M67.532,29.008 C66.812,29.008 66.254,29.206 65.822,29.638 C65.426,30.052 65.156,30.646 65.048,31.438 L65.048,31.438 L70.07,31.438 C69.89,29.818 69.044,29.008 67.532,29.008 Z M56.678,25.822 L53.222,25.822 L53.222,30.016 L56.696,30.016 C57.56,30.016 58.208,29.818 58.64,29.458 C59.054,29.098 59.27,28.576 59.27,27.892 C59.27,27.172 59.054,26.65 58.658,26.326 C58.226,25.984 57.578,25.822 56.678,25.822 L56.678,25.822 Z" id="形状结合" fill="#1FAB89"></path>
            <text id="(.*)" font-family="PingFangSC-Medium, PingFang SC" font-size="15.625" font-weight="400" fill="#FFFFFF">
                <tspan x="15" y="36">(.*)</tspan>
            </text>
        </g>
    </g>
</svg>